<?xml version="1.0" encoding="utf-8"?><svg viewBox="0 0 682.667 682.667" xmlns="http://www.w3.org/2000/svg" xmlns:xlink="http://www.w3.org/1999/xlink"><style>:root>svg{display:none}:root>svg:target{display:block}</style><svg viewBox="0 0 6 10" id="arrow" xmlns="http://www.w3.org/2000/svg"><path d="M5.715 4.61L1.265.16A.543.543 0 00.878 0a.543.543 0 00-.386.16L.164.487a.548.548 0 000 .774L3.9 4.998.16 8.739a.543.543 0 00-.16.387c0 .146.057.284.16.387l.327.327c.103.103.24.16.387.16a.543.543 0 00.387-.16l4.454-4.454a.544.544 0 00.16-.388.544.544 0 00-.16-.388z"/></svg><svg version="1.0" viewBox="0 0 512 512" id="hide" xmlns="http://www.w3.org/2000/svg"><path d="M426 65c-1.4.6-14.7 13.3-29.7 28.2l-27.1 27.1-12.9-5c-20.8-8.3-40.6-13.5-63.8-17-18.4-2.7-57.1-2.4-76.4.6-50.9 7.8-95.9 28.1-138.5 62.4-13.5 10.8-39.1 36.6-50 50.2-11.8 14.9-26.4 36.8-27.2 41-1.1 6 .4 10 8.6 22.3 24 36.3 58.4 70.9 93 93.7 5.8 3.8 10.7 7 10.9 7.2.3.2-10.4 11.3-23.6 24.6-20.7 20.7-24.2 24.7-24.8 28-1.1 6 .3 10.7 4.4 14.8 4.1 4.1 8.8 5.5 14.8 4.4 3.4-.6 22.7-19.6 183.1-179.8C398.5 136 446.3 87.6 447.1 85.1c2.2-6.7-.2-13.9-6.3-18.4-3.1-2.3-11.1-3.2-14.8-1.7zm-136 65.5c17.2 2.6 36.3 7.6 51.4 13.5l3 1.1-16.4 16.4-16.4 16.4-2.7-1.9c-5.2-3.8-21.5-11-29.4-13.2-10.6-2.8-34.4-3.1-44.9-.5-18.3 4.6-32.8 12.8-46.2 26.1-13.3 13.4-21.5 28-26.1 46.2-2.7 10.8-2.4 33.4.5 44.4 2.3 8.3 8.9 23.4 13.1 29.5l2 3.1-20.3 20.3-20.3 20.3-9.5-5.9c-33.2-20.9-66.9-52.7-87.8-82.9l-5.1-7.4 5-7.3c17.7-25.6 48.5-56.4 74.6-74.8 35.2-24.8 76.8-40.5 118.1-44.8 12.4-1.3 44.8-.5 57.4 1.4zm-19.8 63.4c6.2 1.6 17.8 6.4 17.8 7.4 0 .1-19.5 19.7-43.4 43.6l-43.4 43.4-2.7-5.2c-3.6-7.3-6.5-19.1-6.5-27 .1-40.9 39.4-72.1 78.2-62.2zm143.5-28.1c-5.9 5.9-10.7 11.2-10.6 11.7 0 .6 3.9 4 8.7 7.7 20.5 15.7 47.5 44.5 62.1 66l3.2 4.8-4.1 6c-17.2 25.4-47.1 55.7-73.5 74.6-45.2 32.4-98 48.9-150.5 47-16.4-.5-21.5-1.1-38.3-4.2l-8.9-1.7-12.9 12.9c-9.3 9.3-12.5 13-11.5 13.6 2.8 1.6 26.5 6.9 40.1 9 18.7 2.9 56.8 3.1 75 .5 64.5-9.5 118.3-37.3 167.5-86.6 17.6-17.7 29.1-31.6 42-50.9 12.9-19.2 12.9-20.9 1.2-38.8-11.2-17-26.5-35.7-42.7-52-13.7-13.8-32.8-30.4-34.9-30.4-.6 0-6 4.8-11.9 10.8z"/><path d="M333.6 245.9l-13.8 13.8-1.3 7.9c-1.6 9.2-7.3 21.4-13.4 28.7-9.4 11.3-23.8 19.8-37.5 22.2l-7.9 1.3-14.1 14.1c-7.7 7.7-13.7 14.3-13.4 14.6 1.2 1.2 16.5 3.4 23.9 3.5 25.3.1 48.6-9.8 67.4-28.5 19.3-19.3 27.8-39.6 27.9-66.5.1-12.5-1.6-25-3.2-25-.4 0-6.9 6.2-14.6 13.9z"/></svg><svg viewBox="0 0 137 72" id="logo" xmlns="http://www.w3.org/2000/svg"><path d="M4.96 61.508h3.142c.492 0 .742-.04.968-.133.532-.219.938-.688.938-1.344 0-.648-.39-1.125-.938-1.351-.226-.094-.468-.14-.976-.14H4.96v2.968zm0 6.492H3.095V56.797h5.234c.867 0 1.438.148 1.922.43.969.523 1.602 1.53 1.602 2.796 0 1.235-.633 2.258-1.61 2.79-.484.273-1.047.43-1.914.43H4.961V68zm13.91-11.203h2.086l3.047 5.742 2.953-5.742h2.086l-4.305 8.101c-.531 1-.875 1.594-1.375 2.118-.578.593-1.281 1.007-2.219 1.007a3.28 3.28 0 01-1.875-.601l.953-1.586c.282.203.61.312.946.312.656 0 1.054-.39 1.562-1.304.008-.031.258-.477.258-.477l-4.117-7.57zm17.76 0h1.007l4.851 5.836 4.844-5.836h1.016V68h-1.875v-7.648l-3.985 4.867-3.992-4.867V68h-1.867V56.797zm19.696-.008h9.469v1.75H61.99V68h-1.875v-9.46h-3.789v-1.75zM81.561 68v-7.82L74.78 68h-1.016V56.797h1.875v7.812c2.258-2.601 4.516-5.21 6.781-7.812h1.016V68H81.56zm19.212-3.328c0 1.312-.656 2.351-1.656 2.898-.492.274-1.078.43-1.953.43h-5.133V56.797h7.727v1.742h-5.86v2.813h3.266c.875 0 1.461.156 1.945.437 1.008.54 1.664 1.61 1.664 2.883zm-1.851 0c0-.703-.422-1.211-.984-1.453-.235-.094-.493-.14-.993-.14h-3.047v3.187h3.04c.515 0 .773-.047 1-.149.57-.234.984-.75.984-1.445zm9.931-7.875h7.649v1.734h-5.774v2.461h4.477v1.719h-4.477v3.555h5.774V68h-7.649V56.797zm15.244-.008h9.469v1.75h-3.805V68h-1.875v-9.46h-3.789v-1.75z"/><mask id="ca" maskUnits="userSpaceOnUse" x="0" y="0" width="137" height="48"><path d="M137 0H0v48h137V0z"/></mask><g mask="url(#ca)"><path d="M.153 27.914c.245-.058 24.662-5.88 43.047-14.033 2.045-.907 3.7-1.445 5.096-1.698-1.563 1.574-10.756 5.5-3.414 6.195 6.737.64-4.36 8.633-9.448 11.539-13.38 4.243-22.065 5.909-22.221 5.938l.184.982c.045-.009.823-.158 2.23-.47 7.377-1.632 32.138-7.745 60.545-21.715 3.984-1.96 7.235-3.046 9.972-3.45-.803 4.117-10.09 13.218 4.743 15.516 13.529 2.096-13.602 7.418-23.714 10.128-1.459.39-2.563.727-3.14.992-4.465 2.047 47.434.206 70.643.112.757.027 1.53.042 2.324.042v-.999c-20.73 0-28.072-9.48-33.972-17.096-6.13-7.916-10.973-14.17-27.296-6.142a282.248 282.248 0 01-11.5 5.335c-3.423-1.218-5.496-2.97-7.312-4.507-3.382-2.864-5.825-4.933-13.99-1.31C24.603 21.4.244 27.209 0 27.266l.153.648z"/></g></svg><svg viewBox="0 0 28 28" id="pinterest" xmlns="http://www.w3.org/2000/svg"><path d="M10.053 26.72c1.28.387 2.574.613 3.947.613A13.333 13.333 0 10.667 14c0 5.667 3.56 10.533 8.586 12.453-.12-1.04-.24-2.76 0-3.946l1.534-6.587s-.387-.773-.387-2c0-1.84 1.147-3.213 2.453-3.213 1.147 0 1.68.84 1.68 1.92 0 1.146-.76 2.786-1.146 4.36-.227 1.306.693 2.453 2.026 2.453 2.374 0 4.214-2.533 4.214-6.107 0-3.2-2.294-5.386-5.587-5.386-3.76 0-5.973 2.8-5.973 5.746 0 1.147.373 2.307.986 3.067.12.08.12.187.08.387L8.747 18.6c0 .227-.147.307-.374.147C6.667 18 5.68 15.573 5.68 13.613c0-4.213 2.987-8.04 8.747-8.04 4.586 0 8.16 3.294 8.16 7.667 0 4.587-2.84 8.267-6.907 8.267-1.293 0-2.56-.694-3.013-1.507l-.894 3.16c-.306 1.147-1.146 2.68-1.72 3.6v-.04z"/></svg><svg viewBox="0 0 50 50" id="play" xmlns="http://www.w3.org/2000/svg"><rect width="50" height="50" rx="25" fill-opacity=".6"/><path d="M22.243 17.656a1.834 1.834 0 00-2.743 1.591v11.508a1.833 1.833 0 002.743 1.591l10.068-5.755a1.834 1.834 0 000-3.182l-10.068-5.753z"/></svg><svg viewBox="0 0 24 24" id="raiting-star" xmlns="http://www.w3.org/2000/svg"><path d="M12 17.27l4.15 2.51c.76.46 1.69-.22 1.49-1.08l-1.1-4.72 3.67-3.18c.67-.58.31-1.68-.57-1.75l-4.83-.41-1.89-4.46c-.34-.81-1.5-.81-1.84 0L9.19 8.63l-4.83.41c-.88.07-1.24 1.17-.57 1.75l3.67 3.18-1.1 4.72c-.2.86.73 1.54 1.49 1.08l4.15-2.5z"/></svg><svg viewBox="0 0 24 24" id="skype" xmlns="http://www.w3.org/2000/svg"><path d="M20 4c2.76 2.72 3.8 6.52 3.147 10.067.546.96.853 2.08.853 3.266A6.667 6.667 0 0117.333 24a6.59 6.59 0 01-3.266-.853C10.52 23.8 6.72 22.76 4 20 1.24 17.28.2 13.48.853 9.933A6.59 6.59 0 010 6.667 6.667 6.667 0 016.667 0a6.59 6.59 0 013.266.853C13.48.2 17.28 1.24 20 4zm-7.947 14.88c3.827 0 5.734-1.84 5.734-4.32 0-1.587-.747-3.28-3.64-3.933l-2.654-.587c-1.013-.227-2.16-.533-2.16-1.48 0-.96.8-1.627 2.267-1.627 2.973 0 2.693 2.04 4.173 2.04.774 0 1.44-.453 1.44-1.24 0-1.826-2.92-3.2-5.4-3.2-2.68 0-5.546 1.147-5.546 4.187 0 1.467.52 3.027 3.4 3.747l3.586.906c1.08.267 1.347.867 1.347 1.427 0 .907-.907 1.8-2.547 1.8-3.213 0-2.773-2.467-4.493-2.467-.773 0-1.333.534-1.333 1.294 0 1.48 1.773 3.453 5.826 3.453z"/></svg><svg viewBox="0 0 28 28" id="telegram" xmlns="http://www.w3.org/2000/svg"><path d="M14 .667C6.64.667.667 6.64.667 14S6.64 27.333 14 27.333 27.333 21.36 27.333 14 21.36.667 14 .667zm6.187 9.066c-.2 2.107-1.067 7.227-1.507 9.587-.187 1-.56 1.333-.907 1.373-.773.067-1.36-.506-2.106-1-1.174-.773-1.84-1.253-2.974-2-1.32-.866-.466-1.346.294-2.12.2-.2 3.613-3.306 3.68-3.586a.267.267 0 00-.067-.24c-.08-.067-.187-.04-.28-.027-.12.027-1.987 1.267-5.627 3.72-.533.36-1.013.547-1.44.533-.48-.013-1.386-.266-2.066-.493-.84-.267-1.494-.413-1.44-.88.026-.24.36-.48.986-.733 3.894-1.694 6.48-2.814 7.774-3.347 3.706-1.547 4.466-1.813 4.973-1.813.107 0 .36.026.52.16a.53.53 0 01.187.36c-.014.08.013.32 0 .506z"/></svg><svg version="1.0" viewBox="0 0 512 512" id="view" xmlns="http://www.w3.org/2000/svg"><path d="M237 93.6c-58.9 7-113.5 34.2-171.5 85.5-20.3 17.9-53.7 54-62.3 67.4-3.6 5.6-3.6 13.4 0 19 4.6 7.2 24 29.7 37.8 43.8 49.3 50.8 104.2 86.4 156 101.2 22.5 6.4 33.9 7.9 59 7.9s36.5-1.5 59-7.9c60.7-17.4 127.4-64.7 180.6-128.3 14.6-17.4 15.8-19.5 15.8-26.2 0-6.7-1.2-8.8-15.8-26.2-52.9-63.1-119.4-110.5-179.6-128-20.2-5.9-33.6-7.8-55.5-8.2-11-.3-21.6-.2-23.5 0zm43.5 34.9c47.1 7.1 98.4 34.8 147.7 79.9 15.1 13.7 44.8 45.4 44.8 47.7 0 .3-3.4 4.6-7.7 9.4-58.2 66.6-124.4 108.9-184.8 118-12.8 1.9-36.2 1.9-49 0-43.5-6.6-89.9-30.3-136-69.4C78.8 300 39 259 39 256c0-.4 3.4-4.7 7.7-9.5 57.8-66.1 124-108.6 183.9-117.9 12.2-1.9 37.5-1.9 49.9-.1z"/><path d="M242 155.6c-43.3 7.9-74.1 36.1-84.6 77.4-2.7 10.6-2.7 35.4 0 46 9.7 38 37.6 65.9 75.6 75.6 10.6 2.7 35.4 2.7 46 0 38-9.7 65.9-37.6 75.6-75.6 1.5-5.8 1.9-11 1.9-23s-.4-17.2-1.9-23c-9.5-37.5-36.6-65-74.1-75.2-6.8-1.9-32.3-3.3-38.5-2.2zm30 35c18.7 4.2 35.8 17.9 44.5 35.9 5.2 10.7 6.8 18.9 6.3 32.5-.5 12.9-3 21.6-9 31.8-4.2 7.2-15.8 18.8-23 23-21.1 12.4-48.5 12.4-69.6 0-7.2-4.2-18.8-15.8-23-23-12.4-21.1-12.4-48.5 0-69.6 4.2-7.2 15.8-18.8 23-23 15.1-8.9 32.8-11.6 50.8-7.6z"/></svg><svg viewBox="0 0 32 32" id="vk" xmlns="http://www.w3.org/2000/svg"><path d="M16.36 3C8.981 3 3 8.98 3 16.36c0 7.378 5.981 13.36 13.36 13.36s13.36-5.982 13.36-13.36C29.72 8.98 23.739 3 16.36 3zm5.138 15.073s1.181 1.166 1.472 1.707c.009.012.013.023.016.028.118.2.146.354.087.47-.097.191-.431.286-.545.294H20.44c-.144 0-.448-.037-.815-.29-.283-.198-.561-.522-.832-.838-.405-.47-.756-.877-1.11-.877a.426.426 0 00-.132.02c-.267.087-.61.468-.61 1.484 0 .318-.25.5-.426.5h-.957c-.325 0-2.022-.114-3.525-1.7-1.84-1.94-3.496-5.834-3.51-5.87-.104-.253.112-.388.347-.388h2.108c.281 0 .373.172.437.323.076.177.351.88.803 1.67.734 1.289 1.183 1.812 1.544 1.812a.418.418 0 00.193-.05c.47-.261.383-1.938.362-2.286 0-.066-.001-.75-.242-1.079-.173-.238-.466-.328-.644-.362.072-.1.167-.18.277-.235.322-.161.904-.185 1.482-.185h.321c.626.008.788.049 1.015.106.459.11.469.406.428 1.42-.012.289-.025.614-.025.998 0 .084-.004.173-.004.268-.014.516-.03 1.102.334 1.343a.3.3 0 00.159.045c.126 0 .508 0 1.54-1.771.319-.57.595-1.163.828-1.773.021-.036.082-.148.155-.19a.37.37 0 01.172-.041h2.479c.27 0 .455.04.49.145.061.165-.011.67-1.143 2.203l-.505.666c-1.026 1.345-1.026 1.413.064 2.433z"/></svg><svg viewBox="0 0 24 24" id="zoom" xmlns="http://www.w3.org/2000/svg"><path d="M21 21l-4.343-4.343m0 0A8 8 0 105.344 5.344a8 8 0 0011.313 11.313zM11 8v6m-3-3h6"/></svg></svg>